<svg xmlns="http://www.w3.org/2000/svg" viewBox="0 0 48 48" fill="none" stroke="currentColor" stroke-width="2.5" stroke-linecap="round" stroke-linejoin="round">
  <circle cx="10" cy="10" r="3.5"/>
  <line x1="10" y1="13.5" x2="10" y2="22"/>
  <path d="M5 36 L15 36 L10 22 Z"/>
  <line x1="10" y1="16" x2="5" y2="21"/>
  <line x1="10" y1="16" x2="15" y2="21"/>
  <circle cx="24" cy="8" r="3.5"/>
  <line x1="24" y1="11.5" x2="24" y2="20"/>
  <path d="M19 36 L29 36 L24 20 Z"/>
  <line x1="24" y1="14" x2="19" y2="19"/>
  <line x1="24" y1="14" x2="29" y2="19"/>
  <circle cx="38" cy="10" r="3.5"/>
  <line x1="38" y1="13.5" x2="38" y2="22"/>
  <path d="M33 36 L43 36 L38 22 Z"/>
  <line x1="38" y1="16" x2="33" y2="21"/>
  <line x1="38" y1="16" x2="43" y2="21"/>
</svg>
